<mxfile host="app.diagrams.net" modified="2024-05-30T05:09:09.902Z" agent="Mozilla/5.0 (Macintosh; Intel Mac OS X 10_15_7) AppleWebKit/605.1.15 (KHTML, like Gecko) Version/17.5 Safari/605.1.15" version="24.4.10" etag="Wq05QVFQMr5ijb3xg3J6" type="github">
  <diagram name="Page-1" id="5GtbL8Aw-6nWo-bHUYKE">
    <mxGraphModel>
      <root>
        <mxCell id="0" />
        <mxCell id="1" parent="0" />
      </root>
    </mxGraphModel>
  </diagram>
</mxfile>
